<svg width="30" height="30" viewBox="0 0 30 30" fill="none" xmlns="http://www.w3.org/2000/svg">
<rect width="30" height="30" fill="#E5E5E5"/>
<g id="Services" clip-path="url(#clip0_1_2)">
<rect width="1440" height="5047" transform="translate(-1124 -3903)" fill="url(#paint0_linear_1_2)"/>
<g id="Group 1302">
<rect id="Rectangle 273" x="-1124" y="-633" width="1440" height="738" fill="#1C140F"/>
<g id="Group 1173">
<g id="Button/nonact/left">
<circle id="Ellipse 169" cx="15" cy="15" r="29" stroke="#DC7000" stroke-width="2"/>
<g id="eva:arrow-back-fill">
<path id="Vector" d="M23.75 13.75H8.925L13.4625 8.29998C13.6747 8.04471 13.7768 7.71561 13.7463 7.38507C13.7158 7.05454 13.5553 6.74965 13.3 6.53748C13.0447 6.32531 12.7156 6.22323 12.3851 6.2537C12.0546 6.28418 11.7497 6.44471 11.5375 6.69998L5.2875 14.2C5.24545 14.2596 5.20785 14.3223 5.175 14.3875C5.175 14.45 5.175 14.4875 5.0875 14.55C5.03084 14.6933 5.00118 14.8459 5 15C5.00118 15.1541 5.03084 15.3067 5.0875 15.45C5.0875 15.5125 5.0875 15.55 5.175 15.6125C5.20785 15.6777 5.24545 15.7403 5.2875 15.8L11.5375 23.3C11.655 23.4411 11.8022 23.5546 11.9686 23.6323C12.1349 23.7101 12.3164 23.7503 12.5 23.75C12.7921 23.7505 13.0751 23.6488 13.3 23.4625C13.4266 23.3575 13.5312 23.2287 13.6079 23.0832C13.6846 22.9378 13.7318 22.7787 13.7469 22.6149C13.762 22.4512 13.7447 22.2861 13.6959 22.1291C13.6471 21.9721 13.5678 21.8263 13.4625 21.7L8.925 16.25H23.75C24.0815 16.25 24.3995 16.1183 24.6339 15.8839C24.8683 15.6494 25 15.3315 25 15C25 14.6685 24.8683 14.3505 24.6339 14.1161C24.3995 13.8817 24.0815 13.75 23.75 13.75Z" fill="#DC7000"/>
</g>
</g>
<g id="Button/act/right">
<g id="Ellipse 168" filter="url(#filter0_d_1_2)">
<circle cx="95" cy="15" r="30" fill="#DC7000"/>
<circle cx="95" cy="15" r="29" stroke="#DC7000" stroke-width="2"/>
</g>
</g>
</g>
</g>
</g>
<defs>
<filter id="filter0_d_1_2" x="21" y="-45" width="148" height="148" filterUnits="userSpaceOnUse" color-interpolation-filters="sRGB">
<feFlood flood-opacity="0" result="BackgroundImageFix"/>
<feColorMatrix in="SourceAlpha" type="matrix" values="0 0 0 0 0 0 0 0 0 0 0 0 0 0 0 0 0 0 127 0" result="hardAlpha"/>
<feOffset dy="14"/>
<feGaussianBlur stdDeviation="22"/>
<feColorMatrix type="matrix" values="0 0 0 0 0.0561111 0 0 0 0 0.0777333 0 0 0 0 0.133333 0 0 0 0.08 0"/>
<feBlend mode="normal" in2="BackgroundImageFix" result="effect1_dropShadow_1_2"/>
<feBlend mode="normal" in="SourceGraphic" in2="effect1_dropShadow_1_2" result="shape"/>
</filter>
<linearGradient id="paint0_linear_1_2" x1="347" y1="-1648.5" x2="1376.5" y2="4679.5" gradientUnits="userSpaceOnUse">
<stop stop-color="#050301"/>
<stop offset="1" stop-color="#120A01"/>
</linearGradient>
<clipPath id="clip0_1_2">
<rect width="1440" height="5047" fill="white" transform="translate(-1124 -3903)"/>
</clipPath>
</defs>
</svg>
